<svg xmlns="http://www.w3.org/2000/svg" xmlns:xlink="http://www.w3.org/1999/xlink" viewBox="0 0 628.06 739.4"><defs><path id="1y" d="M-961.6876 533.23102A5.579916 5.11582 0 1 1 -961.68917 533.10973"/><path id="1z" d="M-918.20649 230.84024A10.844958 10.54371 0 1 1 -939.89641 230.84024 10.844958 10.54371 0 1 1 -918.20649 230.84024"/><path id="20" d="m-901.76 259.22c-11.203-50.19-47.13-93.84-90.65-82.05-29.741 10.252-45.64 51.43-22.828 84.77 12.546 16.893 24.04 32.617 8.784 56.687 5.443 2.886 12.252 9.493 18.01 15.698 32.715-18.92 61.62-43.931 86.68-75.1"/><linearGradient xlink:href="#1" id="1k" gradientUnits="userSpaceOnUse" x1="-1049.98" y1="596.95" x2="-1063.07" y2="602.74"/><linearGradient xlink:href="#1" id="1e" gradientUnits="userSpaceOnUse" x1="-1075.21" y1="537.46" x2="-1090" y2="545.3"/><linearGradient xlink:href="#1" id="1i" gradientUnits="userSpaceOnUse" x1="-1035.56" y1="577.85" x2="-1045.26" y2="593.18"/><linearGradient xlink:href="#1" id="1f" gradientUnits="userSpaceOnUse" x1="-1090.12" y1="572" x2="-1095.28" y2="587.27"/><linearGradient xlink:href="#1" id="1h" gradientUnits="userSpaceOnUse" x1="-1048.28" y1="559.42" x2="-1038.57" y2="574.12"/><linearGradient xlink:href="#1" id="1m" gradientUnits="userSpaceOnUse" x1="-1124.71" y1="571.65" x2="-1116.23" y2="576.18"/><linearGradient xlink:href="#1" id="1w" gradientUnits="userSpaceOnUse" x1="-1007.78" y1="528.22" x2="-1007.72" y2="542.98" gradientTransform="matrix(-1.06249 0 0 1.0013-830.44-51.774)"/><linearGradient xlink:href="#1" id="1n" gradientUnits="userSpaceOnUse" x1="-1022.84" y1="636.55" x2="-1032.06" y2="639.62"/><linearGradient xlink:href="#1" id="1v" gradientUnits="userSpaceOnUse" x1="-979.68" y1="515.15" x2="-964.29" y2="530.36" gradientTransform="matrix(1.06093.05419-.0575.99985 1502.02.575)"/><linearGradient xlink:href="#1" id="1p" gradientUnits="userSpaceOnUse" x1="-1010.13" y1="551.43" x2="-1011.12" y2="560.71"/><linearGradient xlink:href="#1" id="1o" gradientUnits="userSpaceOnUse" x1="-994.76" y1="603.91" x2="-1006.75" y2="608.97"/><linearGradient xlink:href="#1" id="1u" gradientUnits="userSpaceOnUse" x1="-1007.78" y1="528.22" x2="-1007.72" y2="542.98" gradientTransform="matrix(1.06093.05419-.0575.99985 1502.02.575)"/><linearGradient xlink:href="#1" id="1x" gradientUnits="userSpaceOnUse" x1="-979.68" y1="515.15" x2="-964.29" y2="530.36" gradientTransform="matrix(-1.06249 0 0 1.0013-830.44-51.774)"/><linearGradient id="6"><stop stop-color="#9f6c5c"/><stop offset=".731" stop-color="#cfb232" stop-opacity=".973"/><stop offset="1" stop-color="#fff908" stop-opacity=".945"/></linearGradient><linearGradient id="4"><stop stop-color="#fff"/><stop offset=".5" stop-color="#e5e2db" stop-opacity=".784"/><stop offset="1" stop-color="#b8bbb8" stop-opacity=".475"/></linearGradient><linearGradient id="3"><stop stop-color="#e0e1e2"/><stop offset="1" stop-color="#e0e1e2" stop-opacity=".175"/></linearGradient><linearGradient id="5"><stop stop-color="#fff"/><stop offset=".5" stop-color="#d0d1d4" stop-opacity=".81"/><stop offset="1" stop-color="#a2a3aa" stop-opacity="0"/></linearGradient><linearGradient id="0"><stop stop-opacity=".227"/><stop offset="1" stop-opacity=".124"/></linearGradient><linearGradient id="2"><stop stop-color="#fff"/><stop offset="1" stop-color="#464646"/></linearGradient><linearGradient id="1"><stop stop-color="#ff0"/><stop offset="1" stop-color="#946300"/></linearGradient><radialGradient xlink:href="#2" id="1L" gradientUnits="userSpaceOnUse" gradientTransform="matrix(4.83049-1.74862 1.69555 5.10657 3166.85-2581.54)" cx="-929.33" cy="231.91" r="10.845"/><radialGradient xlink:href="#2" id="1I" gradientUnits="userSpaceOnUse" gradientTransform="matrix(3.79866-1.58289 1.0825 2.45551 2350.39-1811.7)" cx="-928.83" cy="230.62" r="10.845"/><radialGradient xlink:href="#2" id="1K" gradientUnits="userSpaceOnUse" gradientTransform="matrix(4.34442-2.15055.66716 3.07122 2953.2-2480.89)" cx="-928.67" cy="230.89" r="10.845"/><radialGradient xlink:href="#2" id="1J" gradientUnits="userSpaceOnUse" gradientTransform="matrix(3.79866-1.58289 1.0825 2.45551 2350.39-1811.7)" cx="-928.92" cy="231.2" r="10.845"/><radialGradient xlink:href="#2" id="1M" gradientUnits="userSpaceOnUse" gradientTransform="matrix(3.76785-1.6455 1 2.14021 2340.76-1797.25)" cx="-928.94" cy="230.3" r="10.845"/><radialGradient xlink:href="#2" id="1N" gradientUnits="userSpaceOnUse" gradientTransform="matrix(3.79866-1.58289 1.0825 2.45551 2350.39-1811.7)" cx="-928.94" cy="230.3" r="10.845"/><radialGradient xlink:href="#2" id="1Q" gradientUnits="userSpaceOnUse" gradientTransform="matrix(3.9195-1.30032 1 2.93245 2481.72-1659.34)" cx="-928.11" cy="231.97" r="10.845"/><radialGradient xlink:href="#2" id="1R" gradientUnits="userSpaceOnUse" gradientTransform="matrix(3.77488-1.63553 1.55541 3.49611 2218.7-2101.76)" cx="-927.79" cy="231.81" r="10.845"/><radialGradient xlink:href="#2" id="1P" gradientUnits="userSpaceOnUse" gradientTransform="matrix(3.9195-1.30032 1 2.93245 2481.72-1659.34)" cx="-928.89" cy="230.02" r="10.845"/><radialGradient xlink:href="#2" id="1H" gradientUnits="userSpaceOnUse" gradientTransform="matrix(3.79866-1.58289 1.0825 2.45551 2350.39-1811.7)" cx="-929.25" cy="230.93" r="10.845"/><radialGradient xlink:href="#2" id="1O" gradientUnits="userSpaceOnUse" gradientTransform="matrix(3.9195-1.30032 1 2.93245 2481.72-1659.34)" cx="-928.61" cy="231.91" r="10.845"/><radialGradient xlink:href="#2" id="1E" gradientUnits="userSpaceOnUse" gradientTransform="matrix(3.79866-1.58289 1.0825 2.45551 2350.39-1811.7)" cx="-929.33" cy="230.56" r="10.845"/><radialGradient xlink:href="#6" id="19" gradientUnits="userSpaceOnUse" gradientTransform="matrix(.51476-.55434 1.33825 1.24271-843.56-715.6)" cx="-1213.7" cy="196.57" r="32.381"/><radialGradient xlink:href="#2" id="1G" gradientUnits="userSpaceOnUse" gradientTransform="matrix(3.79866-1.58289 1.0825 2.45551 2350.39-1811.7)" cx="-929.67" cy="230.54" r="10.845"/><radialGradient xlink:href="#6" id="18" gradientUnits="userSpaceOnUse" gradientTransform="matrix(.40567-.37618 1.82941 1.97283-1120.9-678.67)" cx="-1222.17" cy="229.93" r="24.12"/><radialGradient xlink:href="#4" id="16" gradientUnits="userSpaceOnUse" gradientTransform="matrix(1.9083.15009-.7876 11.27457 1319.24-4543.29)" cx="-1055.25" cy="458.04" r="14.501"/><radialGradient xlink:href="#5" id="17" gradientUnits="userSpaceOnUse" gradientTransform="matrix(1.70556.04461 0 7.92869 767.15-3079.12)" cx="-1086.26" cy="451.72" r="18.18"/><radialGradient xlink:href="#2" id="1A" gradientUnits="userSpaceOnUse" gradientTransform="matrix(3.79866-1.58289 1.0825 2.45551 2350.39-1811.7)" cx="-929.7" cy="229.71" r="10.845"/><radialGradient xlink:href="#2" id="1F" gradientUnits="userSpaceOnUse" gradientTransform="matrix(3.79866-1.58289 1.0825 2.45551 2350.39-1811.7)" cx="-929.14" cy="230.81" r="10.845"/><radialGradient xlink:href="#2" id="1B" gradientUnits="userSpaceOnUse" gradientTransform="matrix(3.9195-1.30032 1 2.93245 2481.72-1659.34)" cx="-929.15" cy="231.03" r="10.845"/><radialGradient xlink:href="#2" id="1S" gradientUnits="userSpaceOnUse" gradientTransform="matrix(3.79866-1.58289 1.0825 2.45551 2350.39-1811.7)" cx="-928.66" cy="231.63" r="10.845"/><radialGradient xlink:href="#2" id="1C" gradientUnits="userSpaceOnUse" gradientTransform="matrix(3.78887-1.60275 1 2.21704 2360.29-1775.23)" cx="-928.94" cy="230.3" r="10.845"/><radialGradient xlink:href="#2" id="1D" gradientUnits="userSpaceOnUse" gradientTransform="matrix(3.79866-1.58289 1.0825 2.45551 2350.39-1811.7)" cx="-929.39" cy="230.87" r="10.845"/><radialGradient xlink:href="#2" id="1V" gradientUnits="userSpaceOnUse" gradientTransform="matrix(3.88748-1.37195 1.02525 2.76915 2446.11-1688.52)" cx="-928.69" cy="231.18" r="10.845"/><radialGradient xlink:href="#1" id="1j" gradientUnits="userSpaceOnUse" gradientTransform="matrix(1 0 0 1.04407 0-26.21)" cx="-1012.69" cy="589.11" r="14.188"/><radialGradient xlink:href="#2" id="1T" gradientUnits="userSpaceOnUse" gradientTransform="matrix(3.79866-1.58289 1.0825 2.45551 2350.39-1811.7)" cx="-929.24" cy="231.34" r="10.845"/><radialGradient xlink:href="#1" id="8" gradientUnits="userSpaceOnUse" gradientTransform="matrix(.83656 1.49683-1.68948.85473 1514.78 1483.5)" cx="-1045.12" cy="169.45" r="11.448"/><radialGradient xlink:href="#1" id="1g" gradientUnits="userSpaceOnUse" gradientTransform="matrix(.62709-1.09334 1.3877.79592-1195.46-1097.59)" cx="-1109.28" cy="563.38" r="12.325"/><radialGradient xlink:href="#1" id="9" gradientUnits="userSpaceOnUse" gradientTransform="matrix(1.01854.02716.03763 1.18599 1407.87-108.65)" cx="-1015.47" cy="170.47" r="9.761"/><radialGradient xlink:href="#4" id="7" gradientUnits="userSpaceOnUse" gradientTransform="matrix(1.16195.02319-.04874 1.02212-49.53-12.521)" cx="361.75" cy="185.77" r="7.918"/><radialGradient xlink:href="#1" id="1t" gradientUnits="userSpaceOnUse" gradientTransform="matrix(3.49662 1.09783-.40598 1.54256 2628.19 772.95)" cx="-965.96" cy="531.23" r="4.765"/><radialGradient xlink:href="#1" id="1l" gradientUnits="userSpaceOnUse" gradientTransform="matrix(-.63637-.77139 1.11504-.91987-2381.76 382.65)" cx="-1031.02" cy="617.1" r="15.251"/><radialGradient xlink:href="#1" id="1s" gradientUnits="userSpaceOnUse" gradientTransform="matrix(3.49937 1.08735-.47744 1.833 2668.84 608.37)" cx="-965.36" cy="531.66" r="4.765"/><radialGradient xlink:href="#1" id="1q" gradientUnits="userSpaceOnUse" gradientTransform="matrix(1.53217-.31587.21671 1.05123 444.07-364.46)" cx="-1067.9" cy="569.98" r="21.11"/><radialGradient xlink:href="#1" id="1r" gradientUnits="userSpaceOnUse" gradientTransform="matrix(1 0 0 .95749 0 23.783)" cx="-1032.2" cy="552.96" r="13.887"/><radialGradient xlink:href="#1" id="A" gradientUnits="userSpaceOnUse" gradientTransform="matrix(1.0089-.27698.11521.34508 1382.53-256.22)" cx="-1006.01" cy="194.14" r="25.698"/><radialGradient xlink:href="#2" id="1X" gradientUnits="userSpaceOnUse" gradientTransform="matrix(-7.86335-.94959.97364-5.32149-8454.85 574.14)" cx="-928.78" cy="230.76" r="10.845"/><radialGradient xlink:href="#1" id="B" gradientUnits="userSpaceOnUse" gradientTransform="matrix(1.01854.02716.02713.85491 1409.99-41.865)" cx="-1023.07" cy="227.44" r="22.683"/><radialGradient xlink:href="#2" id="1W" gradientUnits="userSpaceOnUse" gradientTransform="matrix(-5.6328-.68689.74962-4.55706-6331.57 641.38)" cx="-928.69" cy="231.18" r="10.845"/><radialGradient xlink:href="#2" id="1U" gradientUnits="userSpaceOnUse" gradientTransform="matrix(3.87751-1.39769 1.12621 2.98629 2413.51-1762.61)" cx="-928.69" cy="231.18" r="10.845"/><radialGradient id="C" gradientUnits="userSpaceOnUse" gradientTransform="matrix(.59575-.6497.99421.90236 793.83-775.72)" cx="-1029.23" cy="164.43" r="42.07"><stop stop-color="#ffff7e"/><stop offset=".596" stop-color="#ffff54"/><stop offset="1" stop-color="#d2a932"/></radialGradient><radialGradient xlink:href="#2" id="1Y" gradientUnits="userSpaceOnUse" gradientTransform="matrix(3.2554-1.4597 1.08725 2.27441 1844.64-1655.56)" cx="-928.94" cy="230.3" r="10.845"/><radialGradient id="1d" gradientUnits="userSpaceOnUse" gradientTransform="matrix(-2.14158-.01801.02003-2.11542-2154.27 562.76)" cx="-1147.48" cy="218.62" r="39.559"><stop stop-color="#fff"/><stop offset="1" stop-color="#a09e9c"/></radialGradient><radialGradient xlink:href="#2" id="1Z" gradientUnits="userSpaceOnUse" gradientTransform="matrix(3.2554-1.4597 1.08725 2.27441 1844.64-1655.56)" cx="-928.44" cy="231.31" r="10.845"/><radialGradient id="1c" gradientUnits="userSpaceOnUse" gradientTransform="matrix(1.29614-.37662.74849 2.28788 1662.64-828.88)" cx="-1171.11" cy="216.51" r="17.11"><stop stop-color="#323232"/><stop offset="1" stop-color="#fffff7" stop-opacity=".206"/></radialGradient><radialGradient xlink:href="#2" id="1a" gradientUnits="userSpaceOnUse" gradientTransform="matrix(7.8467.34439-.28095 3.50302 6424.78-262.6)" cx="-928.94" cy="230.3" r="10.845"/><radialGradient xlink:href="#2" id="1b" gradientUnits="userSpaceOnUse" gradientTransform="matrix(4.67518-1.67734 1.4098 3.85345 3088.74-2222.8)" cx="-928.69" cy="231.18" r="10.845"/><radialGradient xlink:href="#4" id="15" gradientUnits="userSpaceOnUse" gradientTransform="matrix(1.79237.12946-.70893 9.21243 1141.54-3672.84)" cx="-1026.11" cy="463.95" r="20.657"/><radialGradient xlink:href="#3" id="U" gradientUnits="userSpaceOnUse" gradientTransform="matrix(.95972-1.03125 2.012 1.87241-765.66-1414.31)" cx="-1063.23" cy="357.1" r="18.575"/><radialGradient xlink:href="#4" id="14" gradientUnits="userSpaceOnUse" gradientTransform="matrix(1.7741.13221-.65903 8.6346 1074.73-3425.57)" cx="-989.4" cy="466.39" r="27.477"/><radialGradient xlink:href="#2" id="T" gradientUnits="userSpaceOnUse" gradientTransform="matrix(3.79866-1.58289 1.0825 2.45551 2350.39-1811.7)" cx="-928.57" cy="231.73" r="10.845"/><radialGradient xlink:href="#2" id="R" gradientUnits="userSpaceOnUse" gradientTransform="matrix(3.79866-1.58289 1.0825 2.45551 2350.39-1811.7)" cx="-927.96" cy="231.59" r="10.845"/><radialGradient xlink:href="#2" id="S" gradientUnits="userSpaceOnUse" gradientTransform="matrix(3.79866-1.58289 1.0825 2.45551 2350.39-1811.7)" cx="-928.41" cy="231.84" r="10.845"/><radialGradient xlink:href="#3" id="V" gradientUnits="userSpaceOnUse" gradientTransform="matrix(.70854-.93377 2.50489 1.9007-1167.37-1280.16)" cx="-1040.05" cy="345.02" r="16.566"/><radialGradient xlink:href="#2" id="b" gradientUnits="userSpaceOnUse" gradientTransform="matrix(2.70163-1.34049 1.24912 2.37956 1293.11-1569.02)" cx="-928.57" cy="231.73" r="10.845"/><radialGradient xlink:href="#3" id="W" gradientUnits="userSpaceOnUse" gradientTransform="matrix(.60927-.79297 2.61778 2.0113-1295.98-1158.25)" cx="-1020.03" cy="342.77" r="16.566"/><radialGradient xlink:href="#2" id="a" gradientUnits="userSpaceOnUse" gradientTransform="matrix(4.49796-.3927.47702 5.46381 3568.39-2217.64)" cx="-1074.38" cy="402.05" r="7.741"/><radialGradient xlink:href="#3" id="Y" gradientUnits="userSpaceOnUse" gradientTransform="matrix(1.28406-.81507 1.17395 1.84944-122.28-1199.26)" cx="-1088.35" cy="367.51" r="15.14"/><radialGradient xlink:href="#3" id="X" gradientUnits="userSpaceOnUse" gradientTransform="matrix(.75982-.93623 2.89365 2.34842-1201.08-1388.88)" cx="-1004.34" cy="331" r="14.81"/><radialGradient xlink:href="#2" id="Z" gradientUnits="userSpaceOnUse" gradientTransform="matrix(2.77953.00001-.00001 3.50982 1944.5-1018.64)" cx="-1090.77" cy="405.3" r="9.432"/><radialGradient id="Q" gradientUnits="userSpaceOnUse" gradientTransform="matrix(-.75447.57106-.81136-1.07193-1479.73 1076.78)" cx="-967.88" cy="259.44" r="62.15"><stop stop-color="#8a9194"/><stop offset=".429" stop-color="#c4c8c9"/><stop offset="1" stop-color="#fff"/></radialGradient><radialGradient xlink:href="#0" id="H" gradientUnits="userSpaceOnUse" gradientTransform="matrix(.91626.3508-.19098.44303 1501.96 692.28)" cx="-1147.37" cy="590.98" r="114.95"/><radialGradient xlink:href="#2" id="P" gradientUnits="userSpaceOnUse" gradientTransform="matrix(3.79986-1.58016 1.25098 2.84346 2312.42-1899.17)" cx="-928.71" cy="232" r="10.845"/><radialGradient xlink:href="#0" id="G" gradientUnits="userSpaceOnUse" gradientTransform="matrix(1.06249 0 0 .4782 1551.02 271.69)" cx="-1157.04" cy="714.4" r="114.95"/><radialGradient xlink:href="#1" id="E" gradientUnits="userSpaceOnUse" gradientTransform="matrix(.91498.80699-.82281.8286 1861.42 928.15)" cx="-1169.07" cy="589.5" r="36.726"/><radialGradient id="D" gradientUnits="userSpaceOnUse" gradientTransform="matrix(1.29924.00937-.0041 1.61169 348.04-378.06)" cx="-1158.84" cy="634.4" r="22.822"><stop stop-color="#fff" stop-opacity=".595"/><stop offset=".731" stop-color="#b0b3b3" stop-opacity=".773"/><stop offset="1" stop-color="#616767" stop-opacity=".802"/></radialGradient><radialGradient xlink:href="#0" id="F" gradientUnits="userSpaceOnUse" gradientTransform="matrix(.91135.42564-.22379.42896 1516.02 787.47)" cx="-1183.89" cy="608.9" r="114.95"/><radialGradient xlink:href="#0" id="I" gradientUnits="userSpaceOnUse" gradientTransform="matrix(.57505.81435-.42242.26493 1250.62 1342.43)" cx="-1152.73" cy="619.03" r="114.95"/><radialGradient xlink:href="#2" id="O" gradientUnits="userSpaceOnUse" gradientTransform="matrix(2.35258-1.24353 1.31253 2.34708 954.3-1471.45)" cx="-928.57" cy="231.73" r="10.845"/><radialGradient xlink:href="#0" id="J" gradientUnits="userSpaceOnUse" gradientTransform="matrix(1.06249 0 0 .4782 1551.02 271.69)" cx="-1152.32" cy="629.07" r="114.95"/><radialGradient xlink:href="#0" id="N" gradientUnits="userSpaceOnUse" gradientTransform="matrix(-1.08224.10023-.04962-.4759-948.72 989.21)" cx="-1186.85" cy="654.66" r="114.95"/><radialGradient xlink:href="#0" id="L" gradientUnits="userSpaceOnUse" gradientTransform="matrix(.03444.80182-.50699.01934 677.51 1491.24)" cx="-1190" cy="642.46" r="114.95"/><radialGradient xlink:href="#0" id="K" gradientUnits="userSpaceOnUse" gradientTransform="matrix(1.06225-.02137.01329.58678 1541.24 169.39)" cx="-1190.33" cy="808.12" r="114.95"/><radialGradient xlink:href="#0" id="M" gradientUnits="userSpaceOnUse" gradientTransform="matrix(-.93601.88117-.3586-.33832-500.7 1873.44)" cx="-1192.72" cy="752.17" r="114.95"/><radialGradient id="c" gradientUnits="userSpaceOnUse" gradientTransform="matrix(-1.24613.7552.13762.22708-2696.32 1329.33)" cx="-1348.52" cy="294.67" r="97.09"><stop stop-color="#eaeaea"/><stop offset=".275" stop-color="#c5ae50"/><stop offset=".484" stop-color="#b29e26"/><stop offset=".792" stop-color="#a98839"/><stop offset="1" stop-color="#8f632c"/></radialGradient><radialGradient xlink:href="#2" id="w" gradientUnits="userSpaceOnUse" gradientTransform="matrix(4.0086-.3927.42513 5.46381 3078.53-2221.43)" cx="-1074.37" cy="401.39" r="7.741"/><radialGradient xlink:href="#1" id="d" gradientUnits="userSpaceOnUse" gradientTransform="matrix(-1.4801.81104-.18397-.33574-2467.13 1382.3)" cx="-1053.5" cy="421.95" r="46.43"/><radialGradient xlink:href="#2" id="v" gradientUnits="userSpaceOnUse" gradientTransform="matrix(2.80374.00006-.00014 6.83111 1984.85-2363.03)" cx="-1100.38" cy="404.73" r="5.692"/><radialGradient xlink:href="#4" id="t" gradientUnits="userSpaceOnUse" gradientTransform="matrix(1.70482.09096-.56402 11.90253 1002.25-4894.46)" cx="-1055.25" cy="458.29" r="14.501"/><radialGradient xlink:href="#4" id="s" gradientUnits="userSpaceOnUse" gradientTransform="matrix(1.33264.05799-.51994 10.51581 582.81-4353.44)" cx="-1027.44" cy="464.56" r="20.657"/><radialGradient xlink:href="#5" id="u" gradientUnits="userSpaceOnUse" gradientTransform="matrix(1.9586.04527-.00001 6.10045 1042.02-2252.56)" cx="-1086.26" cy="451.72" r="18.18"/><radialGradient xlink:href="#2" id="x" gradientUnits="userSpaceOnUse" gradientTransform="matrix(4.23818.06817-.11027 5.5808 3585.4-1790.58)" cx="-1074.15" cy="402.47" r="7.741"/><radialGradient xlink:href="#4" id="13" gradientUnits="userSpaceOnUse" gradientTransform="matrix(1.58892.50532-2.68933 8.0712 1730.32-2564.43)" cx="-949.18" cy="432.36" r="40.443"/><radialGradient xlink:href="#2" id="y" gradientUnits="userSpaceOnUse" gradientTransform="matrix(4.14154.15355-.2767 6.68555 3564.3-2151.28)" cx="-1073.79" cy="402.68" r="7.741"/><radialGradient xlink:href="#2" id="12" gradientUnits="userSpaceOnUse" gradientTransform="matrix(5.0343-.0342.00004 11.45694 4487.62-4322.49)" cx="-1073.97" cy="403.07" r="7.741"/><radialGradient xlink:href="#2" id="10" gradientUnits="userSpaceOnUse" gradientTransform="matrix(4.31157-.02308-.00008 8.66995 3670.56-3161.27)" cx="-1073.81" cy="403.31" r="7.741"/><radialGradient xlink:href="#2" id="z" gradientUnits="userSpaceOnUse" gradientTransform="matrix(4.13869.22468-.42622 7.39952 3638.76-2372.3)" cx="-1073.79" cy="402.58" r="7.741"/><radialGradient xlink:href="#2" id="11" gradientUnits="userSpaceOnUse" gradientTransform="matrix(4.75772-.05511.05968 9.74053 4145.99-3637.61)" cx="-1073.91" cy="403.21" r="7.741"/><radialGradient xlink:href="#4" id="r" gradientUnits="userSpaceOnUse" gradientTransform="matrix(1.50677.12007-.68052 8.57739 819.76-3407.12)" cx="-994.61" cy="465.16" r="27.477"/><radialGradient xlink:href="#2" id="i" gradientUnits="userSpaceOnUse" gradientTransform="matrix(4.0086-.3927.42513 5.46381 3092.99-2226.41)" cx="-1074.27" cy="402.05" r="7.741"/><radialGradient xlink:href="#4" id="q" gradientUnits="userSpaceOnUse" gradientTransform="matrix(1.57884.25328-1.05962 6.0502 1011.2-1916.59)" cx="-953.14" cy="430.29" r="40.443"/><radialGradient xlink:href="#2" id="h" gradientUnits="userSpaceOnUse" gradientTransform="matrix(4.0086-.3927.42513 5.46381 3078.53-2221.43)" cx="-1074.43" cy="401.98" r="7.741"/><radialGradient xlink:href="#2" id="f" gradientUnits="userSpaceOnUse" gradientTransform="matrix(3.06797-1.25998 1.06928 2.46098 1675.42-1513.33)" cx="-927.92" cy="231.43" r="10.845"/><radialGradient xlink:href="#1" id="e" gradientUnits="userSpaceOnUse" gradientTransform="matrix(2.05416-1.59081.32147.41511 874.16-1283.81)" cx="-957.49" cy="346.77" r="26.418"/><radialGradient xlink:href="#2" id="g" gradientUnits="userSpaceOnUse" gradientTransform="matrix(2.80374.00006-.00014 6.83111 1984.85-2363.03)" cx="-1100.39" cy="405.3" r="5.692"/><radialGradient xlink:href="#2" id="j" gradientUnits="userSpaceOnUse" gradientTransform="matrix(4.0278.01797-.13613 5.5251 3353.92-1815.97)" cx="-1074.1" cy="402.07" r="7.741"/><radialGradient xlink:href="#2" id="p" gradientUnits="userSpaceOnUse" gradientTransform="matrix(5.0343-.0342.00004 11.45694 4487.62-4322.49)" cx="-1073.97" cy="402.97" r="7.741"/><radialGradient xlink:href="#2" id="k" gradientUnits="userSpaceOnUse" gradientTransform="matrix(4.23818.06817-.11027 5.5808 3585.4-1790.58)" cx="-1074.15" cy="402.58" r="7.741"/><radialGradient xlink:href="#2" id="o" gradientUnits="userSpaceOnUse" gradientTransform="matrix(4.75772-.05511.05968 9.74053 4145.99-3637.61)" cx="-1073.91" cy="402.89" r="7.741"/><radialGradient xlink:href="#2" id="m" gradientUnits="userSpaceOnUse" gradientTransform="matrix(4.14154.15355-.2767 6.68555 3581.62-2161.25)" cx="-1073.79" cy="402.59" r="7.741"/><radialGradient xlink:href="#2" id="l" gradientUnits="userSpaceOnUse" gradientTransform="matrix(4.14154.15355-.2767 6.68555 3564.3-2151.28)" cx="-1073.8" cy="402.49" r="7.741"/><radialGradient xlink:href="#2" id="n" gradientUnits="userSpaceOnUse" gradientTransform="matrix(4.31157-.02308-.00008 8.66995 3670.56-3161.27)" cx="-1073.81" cy="402.88" r="7.741"/></defs><g fill-rule="evenodd" stroke="#000"><path d="m5.358.517h618.47c18.18 295.03-22.324 566.17-305.98 738.36-288.03-173.49-334.82-443.77-312.5-738.36z" fill="#c5935e" stroke-width="1.034"/><path d="m15.53 12.639h598.17c17.587 285.34-21.591 547.58-295.93 714.12-278.57-167.79-320.98-430.75-302.24-714.12z" fill="#ce2832" stroke-width="3.543"/></g><g transform="matrix(-1.05644-.10672-.11324.99562-843.08-209.2)"><path d="m-1057.09 564.7c-9.951 1.634-20.898-32.737-28.632-45.975l-14.651-5.786-1.17 19 23.03 35.882 21.418-3.124" fill="url(#1e)" fill-rule="evenodd"/><path d="m-1102.6 579.87c2.286 12.443 9.111 8.241 14.725 8.478m-14.725-8.478l4.908-15.171c2.277 5.145 6.202 8.092 12.05 8.478l-2.231 15.171" fill="url(#1f)" fill-rule="evenodd" id="21"/><path d="m-1097.7 564.7c-7.175-10.02-19.369-10.01-23.649 1.785 4.393 1.291 8.365 4.04 8.01 9.274 4.325 5.926 9.901-.299 10.734 4.112 4.341-4.173 7.05-10.754 4.908-15.171" fill="url(#1g)" fill-rule="evenodd" id="22"/><path d="m-1046.38 577.19c5.432-2 10.03-4.842 14.279-8.03m0 0l-8.478-12.494c-6.247 4.38-12.05 7.853-16.51 8.03l10.709 12.494" fill="url(#1h)" fill-rule="evenodd" id="23"/><path d="m-1057.54 587.01c8.358-1.367 11.37 2.612 15.171 5.801 4.04 3.987 7.06 9.495 15.618 6.693m0 0l4.908-17.403c-10.486-.253-20.396-1.68-24.992-5.467l-10.705 10.375" fill="url(#1i)" fill-rule="evenodd" id="24"/><path d="m-1026.75 599.5c2.997 5.329 4.01 12.893 16.06 8.03-.747-6.07 4.817-9.615 9.817-13.387-2.18-13.637-11.89-15.785-20.972-12.05-5.489 5.388-8.353 11.06-4.908 17.403" fill="url(#1j)" fill-rule="evenodd" id="25"/><path d="m-1041.03 606.64l-16.51-19.634-11.602 6.247c4.908 6.959 9.817 22.315 14.725 20.526l13.386-7.139" fill="url(#1k)" fill-rule="evenodd" id="26"/><path d="m-1054.41 613.78c-2.231 14.695 6.543 21.717 15.171 17.849.442-5.581 5.831-7.04 13.387-6.693 3.187-12.07-7.159-20.33-15.171-18.295-4.746 1.081-9.617 1.588-13.386 7.139" fill="url(#1l)" fill-rule="evenodd" id="27"/><path d="m-1121.15 566.21c-3.869 5.465-4.753 11.618-1.449 18.738 1.815-3.891 1.834-8.956 9.57-8.985.212-6.574-4.601-8.528-8.121-9.753" fill="url(#1m)" fill-rule="evenodd" id="28"/><path d="m-1039.57 631.53c.283-6.808 8.671-7.03 13.458-6.418 4.122 9.823 3.785 25.348-6.418 29.607 1.9-10.207-2.451-16.767-7.04-23.19" fill="url(#1n)" fill-rule="evenodd" id="29"/><path d="m-1011.38 607.09c.297-7.218 5.554-10.16 10.29-12.955 7.02 8.02 7.05 23.474-1.287 30.74-1.423-10.284-2.619-13.14-9-17.784" fill="url(#1o)" fill-rule="evenodd" id="2A"/><path d="m-1019.08 550.99c-.817 4.987-.246 9.848 4.969 14.286 3.354-2.074 6.574-.961 10.973 5.176.531-9.487-1.012-18.351-15.942-19.462" fill="url(#1p)" fill-rule="evenodd" id="2B"/><path d="m-1057.09 564.7c5.01 2.735 8.908 6.429 10.427 12.182-1.645 5.307-2.589 8.868-10.874 10.129-2.807 3.717-4.709 8.05-11.602 6.247-4.975-4.499-9.205-10.674-18.741-4.908-1.725-4.688-1.341-9.692 2.231-15.171 3.816 1.087 6.866.643 7.139-5.355 7.403-3.5 14.415-3.352 21.418-3.124" fill="url(#1q)" fill-rule="evenodd" id="2C"/><path d="m-1032.1 569.16c8.141 6 16.384 2.56 18.295-4.462-6.406-4.611-5.422-9.222-4.908-13.833-13.144-9.779-16.65-.279-21.865 5.801.147 4.812.815 12.391 8.478 12.494" fill="url(#1r)" fill-rule="evenodd" id="2D"/></g><g fill-rule="evenodd"><path d="m203.69 464.56l9.862 2.466-11.875 8.725c-5.254 2.874-5.05 1.457-4.227-3.604l6.239-7.587" fill="url(#1x)"/><path d="m242.54 477.65l-9.259.19c-4.412-.072-3.038 4.572.805 7.777 7.084 4.638 10.355 3.753 12.278 1.138 1.172-2.751 1.789-5.862-3.824-9.105" fill="url(#1w)"/><use transform="matrix(-1.23081 0 0 1.06201-991.89-84.23)" fill="url(#1s)" xlink:href="#1y"/><use transform="matrix(-1.20075.66375.589 1.13428-1263.71 527.95)" fill="url(#1t)" xlink:href="#1y"/></g><g transform="matrix(1.06102-.05268.0559.99994 1523.69-155.98)"><path d="m-1057.09 564.7c-9.951 1.634-19.823-31.991-27.558-45.23l-15.725-6.532 1.253 22.364 20.612 32.521 21.418-3.124" fill="url(#1e)" fill-rule="evenodd"/><use xlink:href="#21"/><use xlink:href="#22"/><use xlink:href="#23"/><use xlink:href="#24"/><use xlink:href="#25"/><use xlink:href="#26"/><use xlink:href="#27"/><use xlink:href="#28"/><use xlink:href="#29"/><use xlink:href="#2A"/><use xlink:href="#2B"/><use xlink:href="#2C"/><use xlink:href="#2D"/></g><g fill-rule="evenodd"><path d="m439.76 463.4l-9.989 1.959 11.357 9.318c5.082 3.137 4.957 1.713 4.427-3.383l-5.795-7.894" fill="url(#1v)"/><path d="m400.21 474.49l9.234.662c4.41.153 2.771 4.72-1.251 7.725-7.34 4.27-10.556 3.22-12.325.51-1.013-2.806-1.449-5.945 4.341-8.896" fill="url(#1u)"/><use transform="matrix(1.229.06278-.06099 1.06045 1665.1-23.596)" fill="url(#1s)" xlink:href="#1y"/><use transform="matrix(1.16087.72402-.65328 1.10257 1901.36 601.54)" fill="url(#1t)" xlink:href="#1y"/><path d="m295.56 553.59c-11.363-13.12-8.254-31.552 3.03-42.767.809-28.721.622-57.88-6.429-81.971-6.838 8.168-13.521 16.482-22.312 22.809-2.554-6.296-3.369-12.593-1.891-18.889l-10.589 4.99 1.891-16.394c-3.239 6.481-7.513 9.06-11.731 11.855l-2.336-13.169c.837 8.694-9.243 5.814-15.808 6.66 5.763-25.388 18.01-46.19 31.766-65.933-2.432-36.828-3.113-73.66-1.513-110.48-.308-53.39 32.613-64.715 30.399-88.8l62.64 2.512c-3.184 28.325 27.567 42.2 22.771 86.29 2.278 38.495-1.222 64.26-2.762 98.5 12.991 18.894 21.05 55.991 37.844 70.07-7.262 2.132-15.178 1.185-23.446-1.426 2.644 9.692 2.396 17.749 0 24.591-7.875-3.922-10.204-9.934-13.236-15.681 2.221 10.985-6.616 14.777-12.1 20.315-.109-14.05-.395-23.01-4.538-28.512-9.5 28.431-11.245 60.52-12.858 92.66 10.647 11.453 14.157 25.384 5.673 43.48-10.332 14.816-40.831 15.922-54.46-.713" fill="#d3d8d8"/><path d="m350.54 556.3c13.03 8.613 39.758 29.04 54.834 12.474 20.12-18.526 51.668-7.625 44.624 18.889-10.884 30.05-33.2 27.789-52.57 33.858.826 14.544-.695 27.591-11.723 40.27-12.06-.841-19.32-3.987-29.12-7.484-6.552 17.531-17.846 24.57-30.443 26.908-30.663-6.764-22.291-17.818-30.442-27.977-5.778 5.384-16.94 11.669-30.632 8.553-18.485-11.142-15.168-24.01-12.1-38.847-33.16-3.75-58.98-12.62-65.04-35.28-10.733-27.927 17.816-39.88 41.976-24.948 26.26 12.804 42.44 16.307 66.18-7.128 20.873 16.904 37.911 10.317 54.46.713" fill="#706b6c"/><path d="m350.01 554.3c13.03 8.613 39.758 29.04 54.834 12.474 20.12-18.526 51.668-7.625 44.624 18.889-10.884 30.05-33.2 27.789-52.57 33.858.826 14.544-.695 27.591-11.723 40.27-12.06-.841-19.32-3.987-29.12-7.484-6.552 17.531-17.846 24.57-30.443 26.908-30.663-6.764-22.291-17.818-30.442-27.977-5.778 5.384-16.94 11.669-30.632 8.553-18.485-11.142-15.168-24.01-12.1-38.847-33.16-3.75-58.98-12.62-65.04-35.28-10.733-27.927 17.816-39.88 41.976-24.948 26.26 12.804 42.44 16.307 66.18-7.128 20.873 16.904 37.911 10.317 54.46.713" fill="#d3d8d8"/><path transform="matrix(1.18055 0 0 1.09669 1683.79-167.27)" d="M-1130.5208 639.21381A22.821728 22.18779 0 1 1 -1176.1643 639.21381 22.821728 22.18779 0 1 1 -1130.5208 639.21381" fill="url(#D)"/></g><g transform="matrix(1.06249 0 0 1.0013 1549.56-103.86)"><g fill-rule="evenodd"><use transform="matrix(-.92965 0 0 .95621-1814.76-25.467)" fill="url(#O)" xlink:href="#1z"/><use transform="matrix(-1.19444 0 0 1.22857-2094.3 34.987)" fill="url(#P)" xlink:href="#1z"/><path d="m-1102.5 387.08l-.161 70.45c1.364 2.01 4.355 4.981 8.229 6.91 4.254 10.624 16.349 31.17 30.04 32.22 9.327 18.539 14.995 16.543 26.438 19.689 5.649 13.359 13.368 19.914 29.336 19.514 7.672 16.613 24.26 23.487 33.467 19.217 6.511 19.881 21.557 23.69 30.09 21.242-22.969-70.47 49.643-179.62 47.4-271.14-1.893-14.565-1.436-29.531-4.858-44.863"/></g><path d="m-1106.5 386.58l-.161 69.45c1.364 2.01 4.355 4.981 8.229 6.91 4.254 10.624 16.349 31.17 30.04 32.22 9.327 18.539 14.995 16.543 26.438 19.689 5.649 13.359 13.368 19.914 29.336 19.514 7.672 16.613 24.26 23.487 33.467 19.217 6.511 19.881 24.805 23.69 33.34 21.242-22.969-70.47 49.16-177.65 46.912-269.17 1.68-15.16.566-31.1-2.856-46.44" fill="#999" fill-rule="evenodd" id="2E"/><g fill-rule="evenodd"><use fill="#e0e1e2" xlink:href="#20"/><use fill="url(#Q)" xlink:href="#20"/><g fill="url(#P)"><use transform="matrix(-1.19444 0 0 1.22857-2076.5 23.5)" xlink:href="#1z"/><use transform="matrix(-1.19444 0 0 1.22857-2063.87 10.291)" xlink:href="#1z"/><use transform="matrix(-1.19444 0 0 1.22857-2040.89-10.96)" xlink:href="#1z"/></g><use transform="matrix(-1.19444 0 0 1.22857-2054.25-1.813)" fill="url(#R)" xlink:href="#1z"/><use transform="matrix(-.87669 0 0 .90174-1805.77 100.46)" fill="url(#S)" xlink:href="#1z"/><use transform="matrix(-1.06205 0 0 1.09239-1973.65 41.596)" fill="url(#T)" xlink:href="#1z"/><path d="m-1106.5 386.58l-.636-30.2c5.437-4.944 8.538-4.693 18.233-2.607 3.107-5.635 16.602-12.01 25.771-8.149 5.7-7.684 13.626-8.148 20.977-7.579.658-5.719 11.03-10 19.383-9.05 2.065-7.858 7.694-10.169 16.323-10.377 7.199 1.917 12.452 8.917 21.46 15.698-31.678 28.767-80.33 35.713-121.51 52.26" fill="#767f81"/></g><path d="m-1089.4 354.23c4.047-8.131 16.436-10.128 24.565-9.47 7.468 5.42 13.636 11.361 18.235 17.929-.859 7.763-21.13 9.09-25.322 8.177-4.887-9.542-10.16-12.392-17.478-16.635" fill="url(#U)" fill-rule="evenodd" id="2F"/><path d="m-1062.92 346.76c1.632-7.833 12.169-9.208 20.299-8.551 6.823 4.632 12.461 9.659 15.847 15.437-.859 7.763-16.221 10.212-20.414 9.297-4.102-5.751-8.76-11.581-15.732-16.184" fill="url(#V)" fill-rule="evenodd" id="2G"/><path d="m-1042.86 338.33c1.632-7.833 11.609-10.171 19.738-9.514 5.904 5.271 12.493 10.543 15.623 15.814-.859 7.763-14.925 10.613-19.12 9.698-3.909-5.87-10.384-12.502-16.244-15.998" fill="url(#W)" fill-rule="evenodd" id="2H"/><path d="m-1022.8 329.14c1.632-6.662 8.257-11.286 16.387-10.629 7.595 2.678 14.756 10.808 19.72 14.802-.859 7.763-16.682 12.724-20.874 11.81-5.077-7.719-9.724-11.594-15.232-15.983" fill="url(#X)" fill-rule="evenodd" id="2I"/><path d="m-1104.27 358.18c2.093-5.491 6.915-6.934 14.264-4.326 8.425 5.642 12.321 9.212 18.347 16.549-.859 7.763-28.421 8.808-32.613 7.894l.002-20.12" fill="url(#Y)" fill-rule="evenodd" id="2J"/><path d="m-1094 394.46c1.875-3.233 7.594-5.934 13.868-1.476.39 5.592-.148 14.178-.153 19.02-4.03 4.973-10.768 7.714-14.02 1.723.312-5.353-1.213-11.862.304-19.266" fill="url(#Z)" fill-rule="evenodd" id="2K"/><path d="m-1079.58 392.22c1.9-1.889 7.305-6.54 14.33-3.655l.123 17.902c-3.838 9.193-13.978 9.851-14.43 4.291.661-3.573-.135-11.331-.023-18.538" fill="url(#a)" fill-rule="evenodd" id="2L"/><g fill-rule="evenodd"><g fill="url(#T)"><use transform="matrix(-1.06205 0 0 1.09239-1953.55 34.704)" xlink:href="#1z"/><use transform="matrix(-1.06205 0 0 1.09239-1923.69 15.177)" xlink:href="#1z"/></g><use transform="matrix(-1.06205 0 0 1.09239-1901.86 7.136)" fill="url(#b)" xlink:href="#1z"/></g><g transform="translate(0-46.853)"><path d="m-901.9 305.76c-41.688 53.14-132.33 114.33-204.03 121.66l.131 12.276c74.22-.785 168.78-77.03 206.27-112.91l-2.366-21.02" fill="url(#c)" fill-rule="evenodd" id="2P"/><path d="m-1105.42 432.81c37.639-5.706 60.52-15.69 92.87-31.855-28.914 18.431-54.26 30.927-92.64 35.553l-.227-3.699" fill="url(#d)" fill-rule="evenodd" id="2Q"/><path d="m-902.55 314.35c-18.997 23.74-38.74 39.865-56.968 53.924 17.769-11.264 38.647-26.24 58.26-45.862l-1.29-8.06" fill="url(#e)" fill-rule="evenodd" id="2R"/></g><g fill-rule="evenodd"><use transform="matrix(-1.06205 0 0 1.09239-1919.67-3.776)" fill="url(#O)" xlink:href="#1z"/><use transform="matrix(-.79725 0 0 .82003-1657.27 53.26)" fill="url(#f)" xlink:href="#1z"/><g fill="url(#O)"><use transform="matrix(-1.06205 0 0 1.09239-1939.77 4.839)" xlink:href="#1z"/><use transform="matrix(-.92965 0 0 .95621-1826.24 50.35)" xlink:href="#1z"/><use transform="matrix(-.92965 0 0 .95621-1844.62 61.26)" xlink:href="#1z"/><use transform="matrix(-.92965 0 0 .95621-1857.83 49.2)" xlink:href="#1z"/><use transform="matrix(-1.03557 0 0 1.06516-1940.15 16.582)" xlink:href="#1z"/><use transform="matrix(-1.14149 0 0 1.1741-2008.69-32.11)" xlink:href="#1z"/><use transform="matrix(-1.14149 0 0 1.1741-1989.16-43.601)" xlink:href="#1z"/><use transform="matrix(-1.03557 0 0 1.06516-1929.81.501)" xlink:href="#1z"/><use transform="matrix(-.92965 0 0 .95621-1800.63-8.274)" xlink:href="#1z"/><use transform="matrix(-1.03557 0 0 1.06516-1914.51-28.386)" xlink:href="#1z"/><use transform="matrix(-1.03557 0 0 1.06516-1930.39-21.324)" xlink:href="#1z"/><use transform="matrix(-.92965 0 0 .95621-1863.03 31.694)" xlink:href="#1z"/><use transform="matrix(-.92965 0 0 .95621-1846.47 23.992)" xlink:href="#1z"/><use transform="matrix(-.92965 0 0 .95621-1852.09 8.994)" xlink:href="#1z"/><use transform="matrix(-.92965 0 0 .95621-1869.89 16.46)" xlink:href="#1z"/><use transform="matrix(-.92965 0 0 .95621-1834.44-13.34)" xlink:href="#1z"/><use transform="matrix(-.92965 0 0 .95621-1852.82-7.191)" xlink:href="#1z"/><use transform="matrix(-.92965 0 0 .95621-1870.39-2.258)" xlink:href="#1z"/><use transform="matrix(-.92965 0 0 .95621-1817.44-20.627)" xlink:href="#1z"/><use transform="matrix(-.92965 0 0 .95621-1831.14-29.864)" xlink:href="#1z"/><use transform="matrix(-.92965 0 0 .95621-1848.5-29.619)" xlink:href="#1z"/><use transform="matrix(-.92965 0 0 .95621-1862.43-20.872)" xlink:href="#1z"/></g><path d="m-1095.24 394.48c.878 6.442.058 13.554-.259 19.997-2.627 3.547-8.463 4.131-10.07-.496l-.41-18.228c3.581-2.988 7.161-1.95 10.742-1.273" fill="url(#g)"/><path d="m-1064.02 388.43c1.457-2.126 7.433-5.828 13.22-4.841l.377 18.377c-3.421 9.193-12.937 10.563-13.339 5-.891-3.573-1.415-11.568-.257-18.538" fill="url(#h)"/></g><path d="m-1049.55 382.26c2.88-1.889 8.856-5.591 14.88-4.841l-.335 23.358c-3.421 9.193-13.648 7-14.05 1.445-.891-3.573-1.652-12.991-.495-19.962" fill="url(#i)" fill-rule="evenodd" id="2M"/><path d="m-1034.61 376.09c3.117-.94 9.09-5.354 15.12-6.501l-.572 26.916c-3.421 9.193-13.648 7-14.05 1.445-.417-3.81.009-14.652-.495-21.859" fill="url(#j)" fill-rule="evenodd" id="2N"/><g fill-rule="evenodd"><path d="m-1019.17 368.27c3.422-.94 8.896-5.117 15.06-6.976l.651 29.05c-3.756 9.193-15.507 7-15.949 1.445.324-3.81.009-16.312.238-23.52" fill="url(#k)"/><path d="m-1003.28 359.49c3.422-.94 10.556-5.591 16.72-8.636l1.363 33.32c-3.756 9.193-17.404 10.563-17.609 3.105.324-3.81-.702-20.582-.473-27.789" fill="url(#l)"/><path d="m-985.72 349.53c3.422-.94 11.268-7.01 17.431-10.06l.177 36.404c-3.044 10.379-16.693 10.09-16.897 2.631.324-3.81-.94-21.768-.711-28.975" fill="url(#m)"/><path d="m-967.25 338.14c3.56-.94 10.565-7.489 16.977-10.534l.184 41.15c-3.167 10.379-17.366 10.09-17.579 2.631.337-3.81.18-26.04.418-33.24" fill="url(#n)"/><path d="m-949.66 325.3c3.929-.959 14.347-10.717 20.711-15.244l-.232 49.06c-2.823 13.189-19.16 10.283-19.399 2.681.372-3.883-1.342-29.15-1.079-36.496" fill="url(#o)"/><path d="m-927.19 308.69c3.929-.959 12.269-12.377 18.633-16.904l-.232 58.07c-2.823 13.189-16.792 10.758-19.399 2.681.372-3.883.736-36.502.998-43.849" fill="url(#p)"/><path d="m-906.35 290.89c4.01 58.34-1.019 66.72-28.939 150.39 7.726-25.88 19.528-64.92 20.804-78.83-5.173.393-9.147-.713-11.79-3.483-10.539 41.01-25.8 81.56-34.16 127.14 5.03-41.36 17.56-81.02 27.516-116.7-6.643 2.296-11.03.638-15.181-1.423-1.626 5.639-4.7 9.541-9.488 11.386-8.08 35.3-15.876 67.923-20.637 100.57-2.686 9.355-1.457 72.46-.712 72.35 4.229 16.485 17.726 24.18 32.26 22.297-9.775-39.466.319-72.68 8.06-107.93 11.12-33.54 21.974-67.21 30.599-102 7.129-24.47 6.955-51.596 7.353-78.51l-5.693 4.744" fill="url(#q)"/><path d="m-1012.83 533.72c-5.425-47.01 1.947-96.18 12.458-140.92 1.305.542 3.457 1.454 6.6.505-3.664 14.565-4.119 25.28-4.913 36.401 1.727-12.286 3.822-24.645 8.486-37.518 2.268-1.315 4.355-3.534 6.03-7.816.804.707 1.634 1.388 2.848 1.686-7.834 28.832-11.342 55.815-15.13 84.07 4.68-27.841 9.424-55.681 18.312-83.52 1.751.007 3.37-.514 4.913-1.34l-3.35 21.439 6.03-23.449c1.87-1.107 2.959-2.996 4.243-4.69-7.489 29.03-12.626 58.06-16.972 87.09 5.837-28.392 10.446-55.56 19.21-86.87l3.126.223c-7.241 35.07-15.858 71.11-19.21 103.4-1.46 23.998-1.794 47.834.893 71.24-14.586 3.938-27.432-6.313-33.574-19.924" fill="url(#r)"/><path d="m-1042.6 514.37c4.056 8.448 11.99 21.682 29.24 19.359-6.658-47.647 3.69-93.99 9.877-140.65-2.798 4.561-6.626 5.165-10.194 6.02l-4.819 56.01 2.844-56.17c-.995-.699-2.042-.939-2.84-3.415-.138 3.815-1.799 5.452-4.35 7.284-3.238 20.637-4.341 43.28-5.531 64.94.176-21.575.518-43.07 2.765-63.61-2.765-.199-6.391.507-8.296-3.161-.044 3.637-3.237 5.51-5.136 6.642-5.19 35.425-5.728 71.32-3.556 106.74" fill="url(#s)"/><path d="m-1041.25 408.29c-4.097 34.812-4.603 70.51-1.906 105.76-14.757-.289-22.18-9.547-25.09-19.471-.828-29.547-2.849-59.69 3.098-85.85l7.523 2.213-1.328 41.15 3.54-43.37 5.31-4.868 8.85 4.425" fill="url(#t)"/></g><path d="m-1067.4 412.73c-.075 0-.149 0 0 0z" fill="none" fill-rule="evenodd" stroke="#000" fill-opacity=".75" id="2O"/><path d="m-1067.85 412.73c-4.525 26.347-2.752 54.934-.448 82.4-13.188-2.782-22.782-14.549-30-32.24-5.481-12.81-4.775-32.565-4.917-43.576 3.876.56 6.04-.252 7.156-3.67 3.382 3.103 6.154 3.154 8.957 3.359l1.344 34.707.896-36.27c1.998-.558 4.085-.936 4.926-3.807l3.135 2.239-.448 34.04 2.239-33.14 7.165-4.03" fill="url(#u)" fill-rule="evenodd"/></g><g transform="matrix(-1.06249 0 0 1.0013-915.85-103.86)"><g fill-rule="evenodd"><path d="m-903.26 261.22c-11.203-50.19-47.13-93.84-90.65-82.05-29.741 10.252-45.64 51.43-22.828 84.77 12.546 16.893 24.04 32.617 8.784 56.687 5.443 2.886 12.252 9.493 18.01 15.698 32.715-18.92 61.62-43.931 86.68-75.1"/><use transform="matrix(-.92965 0 0 .95621-1814.76-25.467)" fill="url(#O)" xlink:href="#1z"/><use transform="matrix(-1.19444 0 0 1.22857-2094.3 34.987)" fill="url(#P)" xlink:href="#1z"/></g><use xlink:href="#2E"/><g fill-rule="evenodd"><use fill="#e0e1e2" xlink:href="#20"/><use fill="url(#Q)" xlink:href="#20"/><g fill="url(#P)"><use transform="matrix(-1.19444 0 0 1.22857-2076.5 23.5)" xlink:href="#1z"/><use transform="matrix(-1.19444 0 0 1.22857-2063.87 10.291)" xlink:href="#1z"/><use transform="matrix(-1.19444 0 0 1.22857-2040.89-10.96)" xlink:href="#1z"/></g><use transform="matrix(-1.19444 0 0 1.22857-2054.25-1.813)" fill="url(#R)" xlink:href="#1z"/><use transform="matrix(-.87669 0 0 .90174-1805.77 100.46)" fill="url(#S)" xlink:href="#1z"/><use transform="matrix(-1.06205 0 0 1.09239-1973.65 41.596)" fill="url(#T)" xlink:href="#1z"/><path d="m-1106.5 386.58l-.636-30.2c5.437-4.944 8.538-4.693 18.233-2.607 3.107-5.635 16.602-12.01 25.771-8.149 5.7-7.684 13.626-8.148 20.977-7.579.658-5.719 11.03-10 19.383-9.05 2.065-7.858 7.694-10.169 16.323-10.377 7.199 1.917 12.452 8.917 21.46 15.698-31.678 28.767-80.33 35.713-121.51 52.26" fill="#767f81"/></g><use xlink:href="#2F"/><use xlink:href="#2G"/><use xlink:href="#2H"/><use xlink:href="#2I"/><use xlink:href="#2J"/><use xlink:href="#2K"/><use xlink:href="#2L"/><g fill-rule="evenodd"><g fill="url(#T)"><use transform="matrix(-1.06205 0 0 1.09239-1953.55 34.704)" xlink:href="#1z"/><use transform="matrix(-1.06205 0 0 1.09239-1923.69 15.177)" xlink:href="#1z"/></g><use transform="matrix(-1.06205 0 0 1.09239-1901.86 7.136)" fill="url(#b)" xlink:href="#1z"/></g><g transform="translate(0-46.853)"><use xlink:href="#2P"/><use xlink:href="#2Q"/><use xlink:href="#2R"/></g><g fill-rule="evenodd"><use transform="matrix(-1.06205 0 0 1.09239-1919.67-3.776)" fill="url(#O)" xlink:href="#1z"/><use transform="matrix(-.79725 0 0 .82003-1657.27 53.26)" fill="url(#f)" xlink:href="#1z"/><g fill="url(#O)"><use transform="matrix(-1.06205 0 0 1.09239-1939.77 4.839)" xlink:href="#1z"/><use transform="matrix(-.92965 0 0 .95621-1826.24 50.35)" xlink:href="#1z"/><use transform="matrix(-.92965 0 0 .95621-1844.62 61.26)" xlink:href="#1z"/><use transform="matrix(-.92965 0 0 .95621-1857.83 49.2)" xlink:href="#1z"/><use transform="matrix(-1.03557 0 0 1.06516-1940.15 16.582)" xlink:href="#1z"/><use transform="matrix(-1.14149 0 0 1.1741-2008.69-32.11)" xlink:href="#1z"/><use transform="matrix(-1.14149 0 0 1.1741-1989.16-43.601)" xlink:href="#1z"/><use transform="matrix(-1.03557 0 0 1.06516-1929.81.501)" xlink:href="#1z"/><use transform="matrix(-.92965 0 0 .95621-1800.63-8.274)" xlink:href="#1z"/><use transform="matrix(-1.03557 0 0 1.06516-1914.51-28.386)" xlink:href="#1z"/><use transform="matrix(-1.03557 0 0 1.06516-1930.39-21.324)" xlink:href="#1z"/><use transform="matrix(-.92965 0 0 .95621-1863.03 31.694)" xlink:href="#1z"/><use transform="matrix(-.92965 0 0 .95621-1846.47 23.992)" xlink:href="#1z"/><use transform="matrix(-.92965 0 0 .95621-1852.09 8.994)" xlink:href="#1z"/><use transform="matrix(-.92965 0 0 .95621-1869.89 16.46)" xlink:href="#1z"/><use transform="matrix(-.92965 0 0 .95621-1834.44-13.34)" xlink:href="#1z"/><use transform="matrix(-.92965 0 0 .95621-1852.82-7.191)" xlink:href="#1z"/><use transform="matrix(-.92965 0 0 .95621-1870.39-2.258)" xlink:href="#1z"/><use transform="matrix(-.92965 0 0 .95621-1817.44-20.627)" xlink:href="#1z"/><use transform="matrix(-.92965 0 0 .95621-1831.14-29.864)" xlink:href="#1z"/><use transform="matrix(-.92965 0 0 .95621-1848.5-29.619)" xlink:href="#1z"/><use transform="matrix(-.92965 0 0 .95621-1862.43-20.872)" xlink:href="#1z"/></g><path d="m-1095.24 394.48c.878 6.442.058 13.554-.259 19.997-2.627 3.547-8.463 4.131-10.07-.496l-.41-18.228c3.581-2.988 7.161-1.95 10.742-1.273" fill="url(#v)"/><path d="m-1064.02 388.43c1.457-2.126 7.433-5.828 13.22-4.841l.377 18.377c-3.421 9.193-12.937 10.563-13.339 5-.891-3.573-1.415-11.568-.257-18.538" fill="url(#w)"/></g><use xlink:href="#2M"/><use xlink:href="#2N"/><g fill-rule="evenodd"><path d="m-1019.17 368.27c3.422-.94 8.896-5.117 15.06-6.976l.651 29.05c-3.756 9.193-15.507 7-15.949 1.445.324-3.81.009-16.312.238-23.52" fill="url(#x)"/><path d="m-1003.28 359.49c3.422-.94 10.556-5.591 16.72-8.636l1.363 33.32c-3.756 9.193-17.404 10.563-17.609 3.105.324-3.81-.702-20.582-.473-27.789" fill="url(#y)"/><path d="m-985.72 349.53c3.422-.94 11.268-7.01 17.431-10.06l.177 36.404c-3.044 10.379-16.693 10.09-16.897 2.631.324-3.81-.94-21.768-.711-28.975" fill="url(#z)"/><path d="m-968.41 338.14c3.56-.94 11.723-7.489 18.13-10.534l.184 41.15c-3.167 10.379-17.366 10.09-17.579 2.631.337-3.81-.977-26.04-.739-33.24" fill="url(#10)"/><path d="m-949.66 325.3c3.929-.959 14.347-10.717 20.711-15.244l-.232 49.06c-2.823 13.189-19.16 10.283-19.399 2.681.372-3.883-1.342-29.15-1.079-36.496" fill="url(#11)"/><path d="m-929.5 308.69c3.929-.959 14.584-12.377 20.948-16.904l-.232 58.07c-2.823 13.189-16.792 10.758-19.399 2.681.372-3.883-1.579-36.502-1.316-43.849" fill="url(#12)"/><path d="m-906.35 290.89c4.01 58.34-1.019 66.72-28.939 150.39 7.726-25.88 19.528-64.92 20.804-78.83-5.173.393-9.147-.713-11.79-3.483-10.539 41.01-25.8 81.56-34.16 127.14 5.03-41.36 17.56-81.02 27.516-116.7-6.643 2.296-11.03.638-15.181-1.423-1.626 5.639-4.7 9.541-9.488 11.386-8.08 35.3-15.876 67.923-20.637 100.57-2.686 9.355-3.194 72.46-.712 72.35 4.229 16.485 17.726 24.18 32.26 22.297-9.775-39.466.319-72.68 8.06-107.93 11.12-33.54 21.974-67.21 30.599-102 7.129-24.47 6.955-51.596 7.353-78.51l-5.693 4.744" fill="url(#13)"/><path d="m-1012.83 533.72c-6-49.46 1.947-96.18 12.458-140.92 1.305.542 3.457 1.454 6.6.505-3.664 14.565-4.119 25.28-4.913 36.401 1.727-12.286 3.822-24.645 8.486-37.518 2.268-1.315 4.355-3.534 6.03-7.816.804.707 1.634 1.388 2.848 1.686-7.834 28.832-11.342 55.815-15.13 84.07 4.68-27.841 9.424-55.681 18.312-83.52 1.751.007 3.37-.514 4.913-1.34l-3.35 21.439 6.03-23.449c1.87-1.107 2.959-2.996 4.243-4.69-7.489 29.03-12.626 58.06-16.972 87.09 5.837-28.392 10.446-55.56 19.21-86.87l3.126.223c-7.241 35.07-15.858 71.11-19.21 103.4-1.46 23.998-1.794 47.834.893 71.24-14.586 3.938-27.432-6.313-33.574-19.924" fill="url(#14)"/><path d="m-1042.6 514.37c4.056 8.448 11.99 21.682 29.24 19.359-6.658-47.647 3.69-93.99 9.877-140.65-2.798 4.561-6.626 5.165-10.194 6.02l-4.819 56.01 2.844-56.17c-.995-.699-2.042-.939-2.84-3.415-.138 3.815-1.799 5.452-4.35 7.284-3.238 20.637-4.341 43.28-5.531 64.94.176-21.575.518-43.07 2.765-63.61-2.765-.199-6.391.507-8.296-3.161-.044 3.637-3.237 5.51-5.136 6.642-5.19 35.425-5.728 71.32-3.556 106.74" fill="url(#15)"/><path d="m-1041.25 408.29c-4.097 34.812-4.02 70.51-1.328 105.76-14.756-.289-22.757-9.547-25.666-19.471-.828-29.547-2.849-59.69 3.098-85.85l7.523 2.213-1.328 41.15 3.54-43.37 5.31-4.868 8.85 4.425" fill="url(#16)"/></g><use xlink:href="#2O"/><path d="m-1067.85 412.73c-4.525 26.347-2.752 54.934-.448 82.4-13.188-2.782-22.782-14.549-30-32.24-5.481-12.81-4.775-32.565-4.917-43.576 3.876.56 6.04-.252 7.156-3.67 3.382 3.103 6.154 3.154 8.957 3.359l1.344 34.707.896-36.27c1.998-.558 4.085-.936 4.926-3.807l3.135 2.239-.448 34.04 2.239-33.14 7.165-4.03" fill="url(#17)" fill-rule="evenodd"/></g><g fill-rule="evenodd"><path d="m290.03 161.5c-.552-6.01-3.29-12.805-9.273-21.248l4.968-63.16c16.772-8.468 38.13-14.253 65.04 12.12 19.978 23.312 14.484 40.62 8.698 55.24-4.08 7.38-6.149 13.774-6.8 19.564l-62.64-2.512" fill="url(#1d)"/><path d="m280.09 139.62c-6.204-15.587-25.328-32.451-38.991-42.578-4.918-3.508-5.383.329-6.429 3.208-11.739-9.324-20.467-27.654-6.807-40.985 21.08-16.02 38.962 7.502 57.86 17.82-3.643 28.561 21.636 57.21-5.633 62.54" fill="#4d4d4d"/><path d="m324.43 112.98c-4.096-4.608-5.563-21.753-9.419-25.996-8.32-8.802-22.29-1.601-25.566 5.706-1.161 10.908.628 23.24 9.419 34.24 4.03-.669 4.543-5.896 3.364-13.315 6.343 7.397 9.522 21.754 14.13 32.97-5.062-16.959 6.917-29.26-6.06-36.14-8.699-3.893-6.36-10.225-.503-11.306 7.14-4.057 6.563 16.14 14.632 13.843" fill="url(#1c)"/><g transform="matrix(1.06249 0 0 1.0013 1549.56-103.86)"><g fill="none" stroke="#000" fill-opacity=".75"><path d="m-1193.94 240.16c0 .116 0 .231 0 0z"/><path d="m-1194.63 240.5c.116 0 .231 0 0 0z"/></g><path d="m-1184.55 223.66c.014.831-3.421-2.01-4.532-2.574-12.741-15.12-26.22-26.99-39.879-28.782-4.176 3.192-2.524 7.443 3.468 12.484 14.208 11.906 25.832 24.505 30.863 35.718 10.497-.272 11.525-6.821 10.08-16.845" fill="url(#18)"/><path d="m-1184.46 223.89c-1.694-11.752-6.948-28.316-5.314-41.99-16.678-7.631-29.758-30.442-50.629-20.46-16.289 13.366-6.72 31.641 2.428 41.27-1.237-12.489 5.747-18.596 14.218-16.645 12.507 3.507 24.1 17.1 34.677 30.863 1.684 2.661 2.3 3.998 2.31 4.582l2.311 2.383" fill="url(#19)"/><path d="m-1184.48 227.51c-.087 0-.174 0 0 0z" fill="none" stroke="#000" fill-opacity=".75"/></g><g fill="url(#1A)"><use transform="matrix(-.64182-.06579-.25672 2.22437-168.86-158.64)" xlink:href="#1z"/><use transform="matrix(-.40731.50805 1.40932 1.03949-315.04 639.42)" xlink:href="#1z"/><use transform="matrix(-.65162.16247.61877 2.16011-369.66 68.28)" xlink:href="#1z"/></g><use transform="matrix(-.7907 0 0 .79545-412.23 285.93)" fill="url(#1B)" xlink:href="#1z"/><use transform="matrix(-.7907 0 0 .79545-396.55 286.49)" fill="url(#1C)" xlink:href="#1z"/><use transform="matrix(-.40731.50805 1.40932 1.03949-326.7 621.11)" fill="url(#1A)" xlink:href="#1z"/><use transform="matrix(-.60071-.28815-1.06624 1.9991-66.17-325.41)" fill="url(#1D)" xlink:href="#1z"/><use transform="matrix(-.63529-.21227-.78205 2.11256-151.6-278.67)" fill="url(#1E)" xlink:href="#1z"/><use transform="matrix(-.63529-.21227-.78205 2.11256-139.94-273.17)" fill="url(#1F)" xlink:href="#1z"/><use transform="matrix(-.63529-.21227-.78205 2.11256-131.52-261.58)" fill="url(#1G)" xlink:href="#1z"/><use transform="matrix(-.63529-.21227-.78205 2.11256-116.62-276.84)" fill="url(#1H)" xlink:href="#1z"/><use transform="matrix(-.53727-.3836-1.42409 1.79022 87.03-387.84)" fill="url(#1I)" xlink:href="#1z"/><use transform="matrix(-.58481-.31586-1.17009 1.94682-2.161-357.4)" fill="url(#1J)" xlink:href="#1z"/><use transform="matrix(-.61536-.25925-.95796 2.04721-67.2-320.04)" fill="url(#1K)" xlink:href="#1z"/><use transform="matrix(-.7907 0 0 .79545-426.92 285.37)" fill="url(#1L)" xlink:href="#1z"/><use transform="matrix(-.54368 0 0 .54694-163.38 333.39)" fill="url(#1M)" xlink:href="#1z"/><g fill="url(#1N)"><use transform="matrix(-.7907 0 0 .79545-402.7 274.71)" xlink:href="#1z"/><use transform="matrix(-.7907 0 0 .79545-393.97 264.8)" xlink:href="#1z"/></g><use transform="matrix(-.7907 0 0 .79545-410.25 264.61)" fill="url(#1O)" xlink:href="#1z"/><use transform="matrix(-.7907 0 0 .79545-402.9 256.2)" fill="url(#1P)" xlink:href="#1z"/><use transform="matrix(-.7907 0 0 .79545-391.2 251.9)" fill="url(#1N)" xlink:href="#1z"/><use transform="matrix(-.7907 0 0 .79545-412.63 250.03)" fill="url(#1Q)" xlink:href="#1z"/><g fill="url(#1N)"><use transform="matrix(-.68091 0 0 .7245-284.83 255.18)" xlink:href="#1z"/><use transform="matrix(-.7907 0 0 .79545-401.12 241.05)" xlink:href="#1z"/></g><use transform="matrix(-.7907 0 0 .79545-411.04 234.69)" fill="url(#1R)" xlink:href="#1z"/><use transform="matrix(-.7907 0 0 .79545-397.94 227.58)" fill="url(#1N)" xlink:href="#1z"/><use transform="matrix(-.7907 0 0 .79545-411.44 221.22)" fill="url(#1R)" xlink:href="#1z"/><use transform="matrix(-.68091 0 0 .7245-282.05 244.34)" fill="url(#1N)" xlink:href="#1z"/><g fill="url(#1A)"><use transform="matrix(-.64182-.06579-.25672 2.22437-174.04-178.17)" xlink:href="#1z"/><use transform="matrix(-.65162.16247.61877 2.16011-378.73 41.42)" xlink:href="#1z"/><path transform="matrix(-.58487.31882.86955 1.47413-370.12 325.66)" d="M-918.20649 230.84024A10.844958 7.32117 0 1 1 -939.89641 230.84024 10.844958 7.32117 0 1 1 -918.20649 230.84024"/><path transform="matrix(-.64102.07237.28239 2.2216-306.33-58.53)" d="M-918.20649 230.84024A10.844958 6.088983 0 1 1 -939.89641 230.84024 10.844958 6.088983 0 1 1 -918.20649 230.84024"/><path d="M-918.20649 230.84024A10.844958 6.071206 0 1 1 -939.89641 230.84024 10.844958 6.071206 0 1 1 -918.20649 230.84024" transform="matrix(-.61167.26687 1.0083 2.02564-441.55 152.9)"/></g><g fill="url(#1N)"><use transform="matrix(-.68091 0 0 .7245-284.43 231.62)" xlink:href="#1z"/><use transform="matrix(-.7907 0 0 .79545-399.93 215.24)" xlink:href="#1z"/></g><use transform="matrix(-.7907 0 0 .79545-412.23 207.76)" fill="url(#1R)" xlink:href="#1z"/><use transform="matrix(-.7907 0 0 .79545-394.77 203.65)" fill="url(#1N)" xlink:href="#1z"/><use transform="matrix(-.7907 0 0 .79545-415.41 193.55)" fill="url(#1R)" xlink:href="#1z"/><use transform="matrix(-.7907 0 0 .79545-403.5 197.29)" fill="url(#1S)" xlink:href="#1z"/><use transform="matrix(-.7907 0 0 .79545-390.4 189.81)" fill="url(#1N)" xlink:href="#1z"/><use transform="matrix(-.89233 0 0 .85703-499.51 168.8)" fill="url(#1T)" xlink:href="#1z"/><g fill="url(#1N)"><use transform="matrix(-.7907 0 0 .79545-389.85 175.78)" xlink:href="#1z"/><use transform="matrix(-1.0067 0 0 .99249-571.62 126.92)" xlink:href="#1z"/><use transform="matrix(-.60014 0 0 .79545-191.46 161.76)" xlink:href="#1z"/><use transform="matrix(-.7907 0 0 .79545-381.59 164.1)" xlink:href="#1z"/><use transform="matrix(-1.0067 0 0 .99249-574.1 107.19)" xlink:href="#1z"/><use transform="matrix(-.60014 0 0 .79545-190.63 143.58)" xlink:href="#1z"/></g><use transform="matrix(-1.0067 0 0 .99249-598.9 120.43)" fill="url(#1U)" xlink:href="#1z"/><use transform="matrix(-.89233 0 0 .85703-511.36 156.08)" fill="url(#1T)" xlink:href="#1z"/><use transform="matrix(-1.0067 0 0 .99249-588.98 107.19)" fill="url(#1V)" xlink:href="#1z"/><use transform="matrix(-1.0067 0 0 .99249-610.2 107.45)" fill="url(#1U)" xlink:href="#1z"/><use transform="matrix(-1.0067 0 0 .99249-628.39 109.52)" fill="url(#1W)" xlink:href="#1z"/><use transform="matrix(-1.0067 0 0 .99249-577.14 92.64)" fill="url(#1N)" xlink:href="#1z"/><use transform="matrix(-1.0067 0 0 .99249-597.53 93.68)" fill="url(#1V)" xlink:href="#1z"/><use transform="matrix(-1.0067 0 0 .99249-619.29 91.35)" fill="url(#1U)" xlink:href="#1z"/><use transform="matrix(-1.0067 0 0 .99249-638.31 94.2)" fill="url(#1W)" xlink:href="#1z"/><g fill="url(#1N)"><use transform="matrix(-.60014 0 0 .79545-188.98 126.44)" xlink:href="#1z"/><use transform="matrix(-1.0067 0 0 .99249-582.65 78.62)" xlink:href="#1z"/></g><use transform="matrix(-1.0067 0 0 .99249-602.76 79.66)" fill="url(#1V)" xlink:href="#1z"/><use transform="matrix(-1.0067 0 0 .99249-623.7 77.06)" fill="url(#1U)" xlink:href="#1z"/><use transform="matrix(-1.0067 0 0 .99249-646.57 78.36)" fill="url(#1W)" xlink:href="#1z"/><use transform="matrix(-1.0067 0 0 .99249-658.15 90.57)" fill="url(#1X)" xlink:href="#1z"/><use transform="matrix(-1.0067 0 0 .99249-570.52 64.34)" fill="url(#1Y)" xlink:href="#1z"/><use transform="matrix(-1.0067 0 0 .99249-590.64 63.82)" fill="url(#1N)" xlink:href="#1z"/><use transform="matrix(-1.0067 0 0 .99249-611.85 63.04)" fill="url(#1V)" xlink:href="#1z"/><use transform="matrix(-1.0067 0 0 .99249-633.35 63.82)" fill="url(#1U)" xlink:href="#1z"/><use transform="matrix(-1.0067 0 0 .99249-655.94 63.82)" fill="url(#1W)" xlink:href="#1z"/><use transform="matrix(-.60014 0 0 .79545-188.43 95.54)" fill="url(#1N)" xlink:href="#1z"/><g fill="url(#1Y)"><use transform="matrix(-1.0067 0 0 .99249-580.44 50.576)" xlink:href="#1z"/><use transform="matrix(-1.0067 0 0 .99249-570.52 33.437)" xlink:href="#1z"/></g><use transform="matrix(-1.0067 0 0 .99249-601.11 49.54)" fill="url(#1N)" xlink:href="#1z"/><use transform="matrix(-1.0067 0 0 .99249-622.88 49.02)" fill="url(#1V)" xlink:href="#1z"/><use transform="matrix(-1.0067 0 0 .99249-642.16 49.28)" fill="url(#1U)" xlink:href="#1z"/><use transform="matrix(-1.0067 0 0 .99249-663.38 46.16)" fill="url(#1X)" xlink:href="#1z"/><use transform="matrix(-1.0067 0 0 .99249-590.36 32.658)" fill="url(#1Y)" xlink:href="#1z"/><use transform="matrix(-1.0067 0 0 .99249-610.2 33.437)" fill="url(#1N)" xlink:href="#1z"/><use transform="matrix(-1.0067 0 0 .99249-630.87 33.18)" fill="url(#1V)" xlink:href="#1z"/><use transform="matrix(-1.0067 0 0 .99249-621.5 19.933)" fill="url(#1U)" xlink:href="#1z"/><use transform="matrix(-1.0067 0 0 .99249-650.16 36.03)" fill="url(#1W)" xlink:href="#1z"/><g fill="url(#1Y)"><use transform="matrix(-1.0067 0 0 .99249-579.62 19.15)" xlink:href="#1z"/><use transform="matrix(-1.0067 0 0 .99249-600.28 18.12)" xlink:href="#1z"/></g><use transform="matrix(-.60014 0 0 .79545-188.7 64.64)" fill="url(#1N)" xlink:href="#1z"/><use transform="matrix(-1.0067 0 0 .99249-662.83 22.53)" fill="url(#1W)" xlink:href="#1z"/><use transform="matrix(-1.0067 0 0 .99249-642.44 22.79)" fill="url(#1V)" xlink:href="#1z"/><g fill="url(#1Y)"><use transform="matrix(-1.0067 0 0 .99249-571.62 3.054)" xlink:href="#1z"/><use transform="matrix(-1.0067 0 0 .99249-592.29 3.054)" xlink:href="#1z"/></g><use transform="matrix(-1.0067 0 0 .99249-612.68 2.275)" fill="url(#1Z)" xlink:href="#1z"/><use transform="matrix(-1.0067 0 0 .99249-633.07 5.131)" fill="url(#1U)" xlink:href="#1z"/><use transform="matrix(-1.0067 0 0 .99249-651.81 6.43)" fill="url(#1W)" xlink:href="#1z"/><g fill="url(#1Y)"><use transform="matrix(-1.0067 0 0 .99249-577.69-14.605)" xlink:href="#1z"/><use transform="matrix(-.89056.44233.49101.87801-604.92 423.55)" xlink:href="#1z"/></g><use transform="matrix(-1.0067 0 0 .99249-620.67-13.566)" fill="url(#1Z)" xlink:href="#1z"/><g fill="url(#1U)"><use transform="matrix(-.94942.31538.35008.93604-667.03 293.76)" xlink:href="#1z"/><use transform="matrix(-.92226.38029.42213.90926-673.86 359.73)" xlink:href="#1z"/></g><g fill="url(#1Y)"><use transform="matrix(-1.0067 0 0 .99249-589.54-30.705)" xlink:href="#1z"/><use transform="matrix(-.89056.44233.49101.87801-612.92 408.23)" xlink:href="#1z"/><use transform="matrix(-.89056.44233.49101.87801-633.03 409.01)" xlink:href="#1z"/></g><use transform="matrix(-1.0067 0 0 .99249-646.57-31.744)" fill="url(#1W)" xlink:href="#1z"/><g fill="url(#1Y)"><use transform="matrix(-1.0067 0 0 .99249-593.94-45.507)" xlink:href="#1z"/><use transform="matrix(-.89056.44233.49101.87801-620.63 393.95)" xlink:href="#1z"/></g><use transform="matrix(-.94942.31538.35008.93604-663.73 260.78)" fill="url(#1U)" xlink:href="#1z"/><use transform="matrix(-1.0067 0 0 .99249-602.67-59.903)" fill="url(#1a)" xlink:href="#1z"/><use transform="matrix(-.94942.31538.35008.93604-651.72 246.39)" fill="url(#1b)" xlink:href="#1z"/><use transform="matrix(-.94942.31538.35008.93604-622.26 231.99)" fill="url(#1U)" xlink:href="#1z"/><path d="m296.67 479.17c16.208-2.058 33-1.48 50.49.85 15.287 5.283 14.431 28.417 0 33.14-22.677-3.957-37.469-2.961-50.49-.85-18.939-2.549-19.794-28.04 0-33.14" fill="url(#E)"/><g fill="none" fill-opacity=".75"><g stroke-linejoin="round" stroke-linecap="round" stroke-width="3.655"><path d="m252.94 622.69c16.286-16.383 41.888-45.508 48.48-62.17-25.525 35.744-42.56 21.744-62.24 17.838-39.839-19.334-39.24 2.896-36.862 6.514 7.783 22.615 43.26 25.14 65.43 20.41" stroke="url(#N)"/><path d="m307.86 564.85c-27.493 56.45-50.2 61.16-38.73 80.38" stroke="url(#M)"/><path d="m319.82 566.64c1.259 38.531-21.389 97.04 7.833 99.88 12.828-1.536 14.357-14.689 13.823-29.963" stroke="url(#L)"/></g><path d="m298.16 650.01c.154 0 .307 0 0 0z" stroke="url(#G)" stroke-width="1.031"/><path d="m296.29 649.63c.524-20.359 9.836-32.07 12.467-50.42" stroke="url(#K)" stroke-linejoin="round" stroke-linecap="round" stroke-width="3.655"/><path d="m325.35 568.37c0-.289 0-.579 0 0z" stroke="url(#G)" stroke-width="1.031"/><g stroke-linejoin="round" stroke-linecap="round" stroke-width="3.655"><path d="m328.57 565.77c.146 11.366 3.03 21.444 5.529 31.7" stroke="url(#J)"/><path d="m355.8 651.31c-8.462-27.641-14.12-61.834-18.93-87.28 1.831 39.436 61.21 57.09 47.46 81.64-8.673 6.603-14.381.629-20.735-2.606" stroke="url(#I)"/><path d="m339.63 562.73c8.916 21.411 29.13 42.73 57.661 56.05" stroke="url(#H)"/></g><path d="m343.78 560.56c0 .145 0 .289 0 0z" stroke="url(#G)" stroke-width="1.031"/><g stroke-width="3.655"><path d="m343.78 560.12c6.243 7.331 41.714 39.04 71.907 15.15 9.4-11.848 30.864-5.525 25.343 10.856" stroke="url(#F)" stroke-linejoin="round" stroke-linecap="round"/><path d="m294.58 554.47c9.794 14.509 42.02 16.827 55.703.48" stroke="#8c8c8c"/></g><path d="m292.05 556.45c14.62 17.08 46.37 16.418 60.28-.366" stroke-opacity=".574" stroke="#888" stroke-width="4.608"/></g><path d="m328.19 73.78c17.17 18.6 29.2 32.698 34.13 63.42 17.864 2.429 34.02 12.898 48.867 20.897-1.822-6.918-.245-14.168-10.724-20.243 8.38-12.197-10.574-15.497-19.991-8.342-15.993-10.292-15.672-19.51-9.916-22.39 8.854-3.931 31.387 7.91 42.17-11.02-3.392-4.549-10.749-6.192-18.647-7.439 9.806-3.159 17.536-7.878 17.834-18.18-11.282-6.581-17.64-1.047-25.391 1.058 6.03-4.901 7.64-9.919 7.854-14.975-17.293-.603-20.992 21.747-32.516 25.16-11.352 4.105-15.758-9.234-11.01-15.478 7.573-5.962 16.86-11.32 14.242-20.878-6.683-2.733-12.339-3.231-15.273 2.196 5.382-10.388 5.178-20.422-2.267-29.995-5.839 18.272-8.112 40.2-19.364 56.21" fill="url(#C)"/><path d="m362.58 137.5c13.619 1.478 27.12 6.474 40.494 13.44-1-3.208-3.412-6.454-9.08-9.787 2.909-9.864-.669-14.427-12.944-7.287-14.14.15-21.19-21.376-25.17-21.563 3.07 8.759 5.907 16.497 6.697 25.2" fill="url(#B)"/><path d="m407.17 72.96c-14.587 11.298-45.22 13.583-48.94 32.535 8.54-5.205 42.695 8.671 51.03-8.184-18.842-5.286-26.615-2.274-36.37.332.602-11.868 36.454-5.967 34.29-24.682" fill="url(#A)"/><path d="m391.36 58.22l-18.16 21.642c7.298-6.321 18.506-9.837 18.16-21.642" fill="url(#9)"/><path d="m362.57 48.777c1.73 9.591-14.11 2.661-16.18 15.187 2.452 6.573 2.033 13.937.716 22.579-5.346-10.622-8.124-16.376-4.391-27.883 3.602-8.526 12.12-13.993 19.851-9.883" fill="url(#8)"/><path transform="matrix(1.21217-.92314 1.49296 1.75397-404.81 114.53)" d="M369.97307 186.72685A7.917712 8.09766 0 1 1 354.13765 186.72685 7.917712 8.09766 0 1 1 369.97307 186.72685" fill="url(#7)"/><path transform="matrix(.92435-.49374.5239.87113 1283.96-657.55)" d="M-1166.6042 196.88838A3.851026 4.877966 0 1 1 -1174.3062 196.88838 3.851026 4.877966 0 1 1 -1166.6042 196.88838" fill="#050405"/></g></svg>